<svg xmlns="http://www.w3.org/2000/svg"  viewBox="0 0 512 512" width="64px" height="64px"><circle cx="256" cy="256" r="148" fill="#a0eaea"/><path fill="#8dc6c4" d="M138,256A148.018,148.018,0,0,1,271,108.752,149.887,149.887,0,0,0,256,108a148,148,0,0,0,0,296,149.887,149.887,0,0,0,15-.752A148.018,148.018,0,0,1,138,256Z"/><path fill="#efc597" d="M279.16,316.06l.04.01a48.709,48.709,0,0,1-46.4,0l.04-.01V295.07a48.551,48.551,0,0,0,46.32,0Z"/><path fill="#f3ce7d" d="M422.18,75.99,371,129.12a171,171,0,0,0-204.39-19.21L126.15,48.15A245.189,245.189,0,0,1,422.18,75.99Z"/><path fill="#6d7486" d="M261.71,199.1c-23.27,6.34-46.39,5.15-46.39,5.15l-.86,18.91a6.956,6.956,0,0,1-10.51,5.69V202.06a52.06,52.06,0,1,1,104.12,0v17.96C276.39,217.98,261.71,199.1,261.71,199.1Z"/><path fill="#5fa8ed" d="M336.38,380l.13.2a148.083,148.083,0,0,1-161.01-.01l.12-.19V353.86a26.045,26.045,0,0,1,.62-5.84c.08-.35.17-.69.26-1.03a27.252,27.252,0,0,1,18.01-18.5l38.29-12.42a48.709,48.709,0,0,0,46.4,0l38.29,12.42a27.252,27.252,0,0,1,18.01,18.5c.09.34.18.68.26,1.03a26.045,26.045,0,0,1,.62,5.84Z"/><path fill="#e87187" d="M426.48,273h73.94A245,245,0,0,1,82.76,429.25a245.006,245.006,0,0,1,0-346.49,249.464,249.464,0,0,1,26.96-23.35l40.54,61.88A171.117,171.117,0,0,0,84.68,256c0,94.47,76.85,171.36,171.32,171.36C344.75,427.36,417.96,359,426.48,273Z"/><path fill="#4ca987" d="M500.96,253H427.28a170.388,170.388,0,0,0-42.33-109.67l51.31-53.25A243.025,243.025,0,0,1,500.96,253Z"/><path fill="#ffd8b7" d="M279.16,295.07a48.551,48.551,0,0,1-46.32,0,49.253,49.253,0,0,1-7.82-5.29,48.454,48.454,0,0,1-16.7-28.38l-2.7-9.27v-.08a13.1,13.1,0,0,1-10.81-12.89,13.39,13.39,0,0,1,.37-3.12,9.84,9.84,0,0,1,8.77-7.49v.3a6.956,6.956,0,0,0,10.51-5.69l.86-18.91s23.12,1.19,46.39-5.15c0,0,14.68,18.88,46.36,20.92v8.53a9.842,9.842,0,0,1,8.75,7.49,13.39,13.39,0,0,1,.37,3.12,13.087,13.087,0,0,1-10.81,12.89v.08l-2.7,9.27A48.485,48.485,0,0,1,279.16,295.07Z"/><path fill="#ad5e73" d="M112.76,429.25a245.006,245.006,0,0,1,0-346.49q3.7-3.7,7.533-7.211L109.72,59.41A249.464,249.464,0,0,0,82.76,82.76,245.015,245.015,0,0,0,256,501.02c5.027,0,10.028-.169,15-.467A243.227,243.227,0,0,1,112.76,429.25Z"/><path fill="#b59a6b" d="M271.481,11.493C266.348,11.175,261.188,11,256,11A243.408,243.408,0,0,0,126.15,48.15l9.788,14.941A243.815,243.815,0,0,1,271.481,11.493Z"/><path fill="#284268" d="M231.609,142.269a6.054,6.054,0,0,0,1.2-.121c1.95-.4,3.938-.744,5.909-1.037a6,6,0,0,0-1.77-11.869c-2.174.324-4.368.709-6.519,1.145a6,6,0,0,0,1.183,11.882Z"/><path fill="#284268" d="M133.834,262a6,6,0,0,0,6-6,116.048,116.048,0,0,1,70.717-106.94,6,6,0,0,0-4.7-11.042A128.031,128.031,0,0,0,127.834,256,6,6,0,0,0,133.834,262Z"/><path fill="#284268" d="M135.676,171.985a6.019,6.019,0,0,0-9.311,1,153.185,153.185,0,0,0-24.255,88.183c2.682,81.339,69.054,146.971,150.417,148.783,87.69,1.952,159.431-69.806,157.453-157.5C408.134,170.642,341.77,104.1,259.966,102.04a153.361,153.361,0,0,0-104.807,37.673,6.105,6.105,0,0,0-1.082,8.164,6.009,6.009,0,0,0,8.839.989A141.4,141.4,0,0,1,258.6,114.014c76.185,1.361,138.044,63.581,139.21,139.769A141.606,141.606,0,0,1,342,368.627V354l-.249-2.61a33.172,33.172,0,0,0-21.169-28.1q-.675-.249-1.364-.473L285,311.7V298.489a55.811,55.811,0,0,0,24.443-35.684l1.764-5.935A18.964,18.964,0,0,0,322.6,234.613a16.368,16.368,0,0,0-8.6-10.547V202.878c0-31.864-25.332-58.438-57.193-58.873A58.073,58.073,0,0,0,198,202.063v21.993a16.4,16.4,0,0,0-8.62,10.557,19.048,19.048,0,0,0,11.38,22.257l1.8,5.935C205.5,277.972,214,290.663,227,298.489V311.7l-34.265,11.085q-.677.219-1.338.464a33.152,33.152,0,0,0-21.18,28.309L170,354v14.489a141.638,141.638,0,0,1-33.45-189.015,6,6,0,0,0-.844-7.482ZM255.974,156A46.084,46.084,0,0,1,302,202.063v11.285c-14-2.033-23.033-7.331-28.784-11.658a80.45,80.45,0,0,0,20.805-11.183,6,6,0,1,0-7.289-9.522c-25.213,19.338-70.65,17.3-71.1,17.274a5.976,5.976,0,0,0-4.339,1.55,6.056,6.056,0,0,0-1.359,1.774A46.1,46.1,0,0,1,255.974,156ZM214.216,260.292c-.036-.19-.081-.379-.135-.565l-2.572-8.848a6,6,0,0,0-4.851-4.739,7.1,7.1,0,0,1-5.648-8.674,3.72,3.72,0,0,1,1.924-2.481,12.822,12.822,0,0,0,4.555.845,13.018,13.018,0,0,0,12.968-12.4l.595-13.08a172.739,172.739,0,0,0,38.648-4.535C265.209,211.3,279,222.5,302,225.465v3.2a6.031,6.031,0,0,0,6.037,6c.042,0,.1,0,.143-.006a3.794,3.794,0,0,1,2.8,2.811,7.082,7.082,0,0,1-5.642,8.674,6.055,6.055,0,0,0-4.773,4.477l-2.647,9.11c-.054.186-.1.375-.135.565a42.516,42.516,0,0,1-83.568,0ZM273,304.173v8.163a42.4,42.4,0,0,1-34,0v-8.163a53.368,53.368,0,0,0,34,0ZM182,354l.078-1.086A21.08,21.08,0,0,1,195.23,334.65q.579-.224,1.175-.417l35.9-11.666a55.186,55.186,0,0,0,47.414-.013L315.646,334.2q.579.188,1.143.405a21.067,21.067,0,0,1,13.171,18.649L330,354v22.912c-21,13.389-46.854,21.115-74.172,21.079A137.941,137.941,0,0,1,182,376.792Z"/><path fill="#284268" d="M428.18,75.821a6,6,0,0,0-1.924-4.232,251.193,251.193,0,0,0-303.3-28.523,6,6,0,0,0-1.83,8.371l40.46,61.758a6,6,0,0,0,8.159,1.825,165,165,0,0,1,197.221,18.546,6,6,0,0,0,8.353-.281L426.5,80.156A6,6,0,0,0,428.18,75.821Zm-57.526,45.013a177.009,177.009,0,0,0-202.168-19.009L134.564,50.046a239.257,239.257,0,0,1,279,26.251Z"/><path fill="#284268" d="M436.321,84.078a5.966,5.966,0,0,0-4.386,1.837l-51.3,53.255a6,6,0,0,0-.195,8.113A165.261,165.261,0,0,1,421.283,253.1a6,6,0,0,0,6,5.9h73.681a6,6,0,0,0,6-6.071,250.17,250.17,0,0,0-66.3-166.92A6,6,0,0,0,436.321,84.078ZM433.081,247a177.312,177.312,0,0,0-40.043-103.409L436.1,98.885A238.149,238.149,0,0,1,494.815,247Z"/><path fill="#284268" d="M500.415,267h-73.93a6,6,0,0,0-5.971,5.408A165.965,165.965,0,0,1,256,421.357c-91.158,0-165.321-74.178-165.321-165.357A164.509,164.509,0,0,1,153.97,126.009a6,6,0,0,0,1.309-8l-40.54-61.88a6,6,0,0,0-8.611-1.519A255.484,255.484,0,0,0,78.516,78.518,251.013,251.013,0,1,0,506.4,273.406,6,6,0,0,0,500.415,267ZM425,425.036A239.013,239.013,0,0,1,87,87a243.9,243.9,0,0,1,21.245-18.892l34.026,51.937A176.345,176.345,0,0,0,78.679,256c0,97.8,79.546,177.357,177.321,177.357A178.006,178.006,0,0,0,431.834,279h62.073A238.536,238.536,0,0,1,425,425.036Z"/></svg>