<svg xmlns="http://www.w3.org/2000/svg"  viewBox="0 0 48 48" width="100px" height="100px"><polygon fill="#3dd9eb" points="42,42 6,42 6,6 42,6 42,13.8"/><rect width="3" height="14" x="42" y="17" fill="#f5bc00"/><rect width="3" height="14" x="3" y="17" fill="#f5bc00"/><rect width="36" height="14" x="6" y="17" fill="#eb7900"/><polygon fill="#fadb00" points="31,26 31,20 29,20 29,28 34,28 34,26"/><polygon fill="#fadb00" points="17,21.241 16,22.439 15,21.241 15,20 13,20 13,21.966 14.698,24 13,26.034 13,28 15,28 15,26.759 16,25.561 17,26.759 17,28 19,28 19,26.034 17.302,24 19,21.966 19,20 17,20"/><polygon fill="#fadb00" points="24,22.531 21.999,20 20,20 20,28 22,28 22,23.227 23.406,25.006 24.594,25.006 26,23.227 26,28 28,28 28,20 26.001,20"/></svg>