<svg xmlns="http://www.w3.org/2000/svg" xmlns:xlink="http://www.w3.org/1999/xlink" viewBox="0,0,256,256" width="96px" height="96px"><g fill="none" fill-rule="nonzero" stroke="none" stroke-width="1" stroke-linecap="butt" stroke-linejoin="miter" stroke-miterlimit="10" stroke-dasharray="" stroke-dashoffset="0" font-family="none" font-weight="none" font-size="none" text-anchor="none" style="mix-blend-mode: normal"><g transform="scale(5.33333,5.33333)"><path d="M26.135,19.865c-2.997,-2.997 -6.261,-4.851 -8.26,-4.865c-0.587,-0.004 -1.065,0.15 -1.395,0.48c-1.455,1.455 0.508,5.778 4.385,9.655c3.877,3.877 8.199,5.84 9.655,4.385c1.455,-1.455 -0.508,-5.778 -4.385,-9.655z" fill="#4e342e"></path><path d="M35.5,28l-1,1l-0.5,0.5l0.64,0.64l0.86,0.86l1,-1l0.5,-0.5l-0.75,-0.75z" fill="#fbc02d"></path><path d="M16.5,39l-1,1l-0.5,0.5l0.702,0.702l0.798,0.798l0.875,-0.875l0.625,-0.625l-0.499,-0.5z" fill="#1976d2"></path><path d="M13.5,6l-1.026,1.026l-0.474,0.474l0.422,0.422l1.078,1.078l0.768,-0.768l0.732,-0.732l-0.829,-0.829z" fill="#fbc02d"></path><path d="M24.5,6l-1.221,1.221l-0.279,0.279l0.386,0.386l1.114,1.114l1.5,-1.5z" fill="#1976d2"></path><path d="M26.5,12l-0.974,0.974l-0.526,0.526l0.68,0.68l0.82,0.82l0.874,-0.874l0.626,-0.626l-0.689,-0.689z" fill="#ff8f00"></path><path d="M40.5,17l-0.672,0.672l-0.828,0.828l0.563,0.563l0.937,0.937l0.922,-0.922l0.578,-0.578l-0.58,-0.58z" fill="#f50057"></path><path d="M7.5,24l-1.031,1.031l-0.469,0.469l0.563,0.563l0.937,0.937l0.969,-0.969l0.531,-0.531l-0.546,-0.546z" fill="#1976d2"></path><path d="M40,31l-1.281,1.281l-0.719,0.719l0.672,0.672l1.328,1.328l1.406,-1.406l0.594,-0.594l-0.484,-0.484z" fill="#ff8f00"></path><path d="M24,35l-1.375,1.375l-0.625,0.625l0.531,0.531l1.469,1.469l1.375,-1.375l0.625,-0.625l-0.469,-0.469zM20,20v0c0.086,-0.077 1,-3 1,-6c0,-1.269 -0.344,-2.251 -1.023,-2.92c-1.108,-1.091 -2.803,-1.074 -2.831,-1.08h-0.146v-2h0.125c0.075,0.002 2.509,-0.047 4.236,1.637c1.088,1.06 1.639,2.528 1.639,4.363c0,4 -3,6 -3,6zM42,42h-2v-0.125c-0.047,-1.438 -0.542,-2.875 -0.875,-2.875c-0.729,0 -1.446,0.878 -2.022,1.584c-0.62,0.76 -1.155,1.416 -1.978,1.416c-1.378,0 -1.684,-1.636 -1.98,-3.217c-0.05,-0.267 -0.114,-0.61 -0.187,-0.936c-0.051,0.104 -0.102,0.205 -0.148,0.3c-0.935,1.895 -1.902,3.853 -3.435,3.853c-1.182,0 -2.375,-0.928 -2.375,-3h2c0,0.589 0.154,1 0.375,1c0.383,-0.188 1.265,-1.975 1.642,-2.738c0.72,-1.459 1.116,-2.262 1.983,-2.262c1.472,0 1.796,1.736 2.111,3.415c0.062,0.329 0.146,0.783 0.238,1.155c0.071,-0.085 0.141,-0.171 0.205,-0.25c0.799,-0.979 1.893,-2.32 3.571,-2.32c2.596,0 2.85,4.036 2.875,4.845z" fill="#f50057"></path><path d="M20.865,25.135c-3.488,-3.488 -5.418,-7.329 -4.712,-9.126l-0.008,-0.009l-10.145,24l24,-10.145l-0.007,-0.009c-1.796,0.707 -5.639,-1.222 -9.128,-4.711z" fill="#ffb300"></path><path d="M17.308,20.614l-11.308,19.386l13.757,-16.05c-0.998,-1.129 -1.827,-2.266 -2.449,-3.336z" fill="#ffe57f"></path><path d="M41,6.001c-2.017,0.033 -3.418,0.468 -4.233,1.277c-0.463,0.459 -0.725,1.039 -0.762,1.684c-0.001,0.012 -0.005,0.078 -0.005,0.098c0.018,1.248 0.63,2.329 0.845,2.69c0.04,0.068 0.11,0.206 0.125,0.256c-0.537,-0.025 -1.507,-0.224 -2.115,-0.354c-1.789,-0.381 -3.331,-0.711 -4.253,0.033c-0.388,0.315 -0.602,0.781 -0.602,1.315c0,1.153 0.746,2.169 1.345,2.986c0.248,0.338 0.623,0.848 0.655,1.014c0,0.519 -0.363,0.714 -2.282,1.234c-2.156,0.584 -5.718,1.766 -7.718,4.766c3,-2 6.102,-2.256 8.24,-2.835c1.849,-0.5 3.76,-1.018 3.76,-3.165c0,-0.777 -0.506,-1.467 -1.043,-2.198c-0.363,-0.495 -0.801,-1.092 -0.924,-1.567c0.551,-0.016 1.683,0.219 2.404,0.373c0.98,0.209 1.881,0.387 2.603,0.39v0.002c0.856,0 1.455,-0.441 1.707,-0.82l0.097,-0.184c0.114,-0.284 0.156,-0.563 0.156,-0.821c0,-0.699 -0.312,-1.247 -0.378,-1.355c-0.143,-0.215 -0.57,-0.962 -0.611,-1.698c-0.001,-0.016 -0.001,-0.067 0,-0.076c0.014,-0.137 0.06,-0.246 0.165,-0.349c0.169,-0.168 0.898,-0.711 3.324,-0.697h0.5v-2c0,0 -0.859,-0.002 -1,0.001z" fill="#ff8f00"></path><path d="M40,28h2c0,-0.172 -0.01,-0.339 -0.028,-0.5c-0.407,-3.537 -5.13,-4.5 -7.972,-4.5c-6,0 -9,3 -9,3c0,0 3,-1 9,-1c0.06,0 6,0.082 6,3z" fill="#1976d2"></path><path d="M10.625,15c-2.296,0 -2.6,-0.354 -2.61,-0.366c0,0 -0.015,-0.035 -0.037,-0.038c0.117,-0.194 0.796,-0.517 1.161,-0.69c0.758,-0.36 1.603,-0.763 1.812,-1.531c0.032,-0.116 0.049,-0.241 0.049,-0.375c0,-0.133 -0.012,-0.257 -0.034,-0.375c-0.186,-0.981 -1.093,-1.455 -1.775,-1.812c-0.908,-0.475 -1.191,-0.701 -1.191,-1.188c0,-0.58 0.839,-0.623 1.008,-0.625h-0.008v-2c-1.206,0 -3,0.699 -3,2.625c0,1.776 1.417,2.517 2.264,2.96c0.155,0.082 0.356,0.187 0.51,0.273c-0.162,0.084 -0.347,0.172 -0.495,0.243c-0.961,0.457 -2.279,1.084 -2.279,2.399c0,2.5 3.009,2.5 4.625,2.5c0.068,0 0.129,0.003 0.183,0.008c-0.43,0.465 -1.584,1.275 -3.768,2.05l0.669,1.885c1.591,-0.565 5.291,-2.103 5.291,-4.193c0,-0.843 -0.743,-1.75 -2.375,-1.75z" fill="#ff8f00"></path></g></g></svg>