<?xml version="1.0" encoding="UTF-8"?>
<svg xmlns="http://www.w3.org/2000/svg" xmlns:xlink="http://www.w3.org/1999/xlink" viewBox="0 0 64 64" width="64px" height="64px">
<g id="surface3540613">
<path style=" stroke:none;fill-rule:nonzero;fill:rgb(100%,100%,100%);fill-opacity:1;" d="M 8.375 12.835938 C 6.304688 12.839844 4.628906 14.515625 4.625 16.585938 L 4.625 17.144531 L 29.167969 36.019531 C 30.972656 37.4375 33.511719 37.4375 35.324219 36.027344 L 59.375 17.148438 L 59.375 16.585938 C 59.371094 14.515625 57.695312 12.839844 55.625 12.835938 Z M 4.625 20.296875 L 4.625 46.46875 L 19.929688 32.070312 Z M 59.375 20.328125 L 44.511719 31.992188 L 59.375 46.417969 Z M 42.527344 33.550781 L 36.863281 37.996094 C 34.152344 40.113281 30.347656 40.117188 27.636719 37.996094 L 21.9375 33.613281 L 5.183594 49.378906 C 5.867188 50.484375 7.074219 51.160156 8.375 51.164062 L 55.625 51.164062 C 56.929688 51.160156 58.140625 50.480469 58.824219 49.367188 Z M 42.527344 33.550781 "/>
</g>
</svg>
