<svg xmlns="http://www.w3.org/2000/svg" xmlns:xlink="http://www.w3.org/1999/xlink" viewBox="0,0,256,256" width="64px" height="64px"><g fill="none" fill-rule="nonzero" stroke="none" stroke-width="1" stroke-linecap="butt" stroke-linejoin="miter" stroke-miterlimit="10" stroke-dasharray="" stroke-dashoffset="0" font-family="none" font-weight="none" font-size="none" text-anchor="none" style="mix-blend-mode: normal"><g transform="scale(0.5,0.5)"><g><path d="M463.58,190.46c2.82233,0.00053 5.51303,1.19367 7.40822,3.28504c1.89519,2.09137 2.81837,4.88621 2.54178,7.69496l-19.4,197.39c-2.02118,20.47267 -19.2378,36.07618 -39.81,36.08h-316.64c-20.5722,-0.00382 -37.78882,-15.60733 -39.81,-36.08l-19.4,-197.39c-0.27659,-2.80875 0.6466,-5.60359 2.54178,-7.69496c1.89519,-2.09137 4.58588,-3.28451 7.40822,-3.28504z" fill="#328cc1"></path><path d="M447.65,164.21v26.25h-381.67v-73.37c0,-22.09139 17.90861,-40 40,-40h43.75c7.14122,-0.00303 14.049,2.54306 19.48,7.18l38.37,32.75c5.43004,4.63978 12.33767,7.18936 19.48,7.19h180.59c22.09139,0 40,17.90861 40,40z" fill="#0b3c5d"></path><path d="M478.4,187.03c-3.79337,-4.1795 -9.17372,-6.56504 -14.818,-6.57h-5.93v-16.25c-0.03141,-27.60122 -22.39878,-49.96859 -50,-50h-180.592c-4.76242,-0.00273 -9.36756,-1.70479 -12.987,-4.8l-38.365,-32.742c-7.24318,-6.18244 -16.45406,-9.5786 -25.977,-9.578h-43.75c-27.60122,0.03141 -49.96859,22.39878 -50,50v63.37h-7.561c-5.64428,0.00111 -11.02532,2.38712 -14.81563,6.5694c-3.7903,4.18229 -5.63695,9.77143 -5.08437,15.3886l19.4,197.394c2.44714,25.6305 24.01506,45.17781 49.762,45.1h316.638c25.74676,0.07734 47.31441,-19.46973 49.762,-45.1l19.4,-197.386c0.55155,-5.61888 -1.29386,-11.20959 -5.082,-15.396zM75.98,117.09c0.01874,-16.56078 13.43922,-29.98126 30,-30h43.75c4.76064,-0.00117 9.36558,1.69585 12.987,4.786l38.365,32.746c7.24199,6.18567 16.45287,9.58537 25.977,9.588h180.591c16.56078,0.01874 29.98126,13.43922 30,30v16.25h-361.67zM444.18,397.848c-1.46631,15.37951 -14.40782,27.10952 -29.857,27.062h-316.643c-15.44779,0.04772 -28.38875,-11.68007 -29.857,-27.058l-19.403,-197.392h415.158z" fill="#d9b310"></path></g></g></g></svg>