<svg xmlns="http://www.w3.org/2000/svg" xmlns:xlink="http://www.w3.org/1999/xlink" viewBox="0,0,256,256" width="96px" height="96px"><g fill="none" fill-rule="nonzero" stroke="none" stroke-width="1" stroke-linecap="butt" stroke-linejoin="miter" stroke-miterlimit="10" stroke-dasharray="" stroke-dashoffset="0" font-family="none" font-weight="none" font-size="none" text-anchor="none" style="mix-blend-mode: normal"><g transform="scale(5.33333,5.33333)"><path d="M39,41c0,1.105 -0.895,2 -2,2h-26c-1.105,0 -2,-0.895 -2,-2v-34c0,-1.105 0.895,-2 2,-2h26c1.105,0 2,0.895 2,2z" fill="#687a8f"></path><path d="M33.5,24h-19c-0.276,0 -0.5,-0.224 -0.5,-0.5v-1c0,-0.276 0.224,-0.5 0.5,-0.5h19c0.276,0 0.5,0.224 0.5,0.5v1c0,0.276 -0.224,0.5 -0.5,0.5z" fill="#dcc7aa"></path><path d="M33.5,16h-19c-0.276,0 -0.5,-0.224 -0.5,-0.5v-3c0,-0.276 0.224,-0.5 0.5,-0.5h19c0.276,0 0.5,0.224 0.5,0.5v3c0,0.276 -0.224,0.5 -0.5,0.5z" fill="#dcc7aa"></path><path d="M33.5,28h-19c-0.276,0 -0.5,-0.224 -0.5,-0.5v-1c0,-0.276 0.224,-0.5 0.5,-0.5h19c0.276,0 0.5,0.224 0.5,0.5v1c0,0.276 -0.224,0.5 -0.5,0.5z" fill="#dcc7aa"></path><path d="M33.5,32h-19c-0.276,0 -0.5,-0.224 -0.5,-0.5v-1c0,-0.276 0.224,-0.5 0.5,-0.5h19c0.276,0 0.5,0.224 0.5,0.5v1c0,0.276 -0.224,0.5 -0.5,0.5z" fill="#dcc7aa"></path><path d="M33.5,36h-19c-0.276,0 -0.5,-0.224 -0.5,-0.5v-1c0,-0.276 0.224,-0.5 0.5,-0.5h19c0.276,0 0.5,0.224 0.5,0.5v1c0,0.276 -0.224,0.5 -0.5,0.5z" fill="#dcc7aa"></path><path d="M34.605,20.574c-0.288,-0.288 -0.669,-0.447 -1.074,-0.447c-0.196,0 -0.386,0.036 -0.563,0.106c-0.588,0.232 -0.968,0.788 -0.968,1.419v15.136c0,0.848 0.69,1.537 1.539,1.537c0.362,0 0.701,-0.124 0.982,-0.358l2.053,-1.716l1.617,4.104c0.149,0.378 0.44,0.655 0.791,0.815c0.006,-0.056 0.018,-0.111 0.018,-0.17v-16.031z" fill="#dcc7aa" opacity="0.05"></path><path d="M39,25.677l-4.749,-4.749c-0.194,-0.194 -0.45,-0.301 -0.72,-0.301c-0.131,0 -0.26,0.024 -0.38,0.072c-0.396,0.155 -0.651,0.529 -0.651,0.953v15.136c0,0.571 0.466,1.037 1.039,1.037c0.243,0 0.472,-0.084 0.662,-0.242l2.585,-2.16l1.871,4.749c0.072,0.183 0.194,0.331 0.343,0.443z" fill="#dcc7aa" opacity="0.07"></path><path d="M33.897,21.281l10.83,10.829c0.321,0.321 0.122,0.872 -0.331,0.913l-4.585,0.415l2.142,5.436c0.106,0.27 -0.026,0.575 -0.296,0.681l-0.945,0.372l-7.378,-18.763c0.181,-0.071 0.401,-0.046 0.563,0.117z" fill="#f7c331"></path><path d="M39.123,39.99l-2.126,-5.395l-3.117,2.604c-0.349,0.292 -0.88,0.044 -0.88,-0.411v-15.135c0,-0.237 0.146,-0.414 0.333,-0.488l7.379,18.764l-0.908,0.358c-0.27,0.106 -0.575,-0.027 -0.681,-0.297z" fill="#f7882f"></path></g></g></svg>