<svg xmlns="http://www.w3.org/2000/svg" xmlns:xlink="http://www.w3.org/1999/xlink" viewBox="0,0,256,256" width="100px" height="100px" fill-rule="nonzero" fill="#5c7cfa"><g fill="#5c7cfa" fill-rule="nonzero" stroke="none" stroke-width="1" stroke-linecap="butt" stroke-linejoin="miter" stroke-miterlimit="10" stroke-dasharray="" stroke-dashoffset="0" font-family="none" font-weight="none" font-size="none" text-anchor="none" style="mix-blend-mode: normal"><g transform="scale(5.12,5.12)"><path d="M5.95117,4c-0.50792,0 -1.02793,0.18613 -1.39648,0.55469c-0.36855,0.36855 -0.55469,0.88857 -0.55469,1.39648v38.0957c0,0.50803 0.18611,1.02958 0.55469,1.39844c0.36858,0.36886 0.88857,0.55469 1.39648,0.55469h38.0957c0.50803,0 1.02958,-0.18611 1.39844,-0.55469c0.36886,-0.36858 0.55469,-0.88857 0.55469,-1.39648v-38.09766c0,-0.50792 -0.18613,-1.02793 -0.55469,-1.39648c-0.36855,-0.36855 -0.88857,-0.55469 -1.39648,-0.55469zM6,6h38v38h-38zM36.39063,19.65039c-2.516,0 -3.99805,1.97016 -3.99805,5.28516c0,1.258 0.23927,2.31019 0.69727,3.11719c0.656,1.264 1.79709,1.94727 3.24609,1.94727c2.146,0 3.66406,-1.43584 3.66406,-3.46484c0,-1.893 -1.37309,-3.28125 -3.24609,-3.28125c-1.162,0 -2.09359,0.53956 -2.55859,1.47656h-0.11523c0,-2.256 0.85487,-3.60156 2.29688,-3.60156c0.848,0 1.50366,0.46399 1.72266,1.20898h1.76367c-0.294,-1.621 -1.67466,-2.6875 -3.47266,-2.6875zM11.2168,20.13672v9.86328h1.76367v-9.86328zM15.41211,20.13672v9.86328h1.76563v-3.23242h2.13867c1.996,0 3.39063,-1.33992 3.39063,-3.29492c0,-1.989 -1.34545,-3.33594 -3.31445,-3.33594zM17.17773,21.61328h1.75c1.271,0 1.99023,0.64937 1.99023,1.85938c0,1.176 -0.73809,1.83203 -1.99609,1.83203h-1.74414zM24.00781,22.52148l2.6582,7.47852h1.86523l2.64648,-7.47852h-1.79102l-1.7168,5.7832h-0.11523l-1.73047,-5.7832zM36.33008,24.6543c1.128,0 1.94141,0.80755 1.94141,1.93555c0,1.1 -0.84808,1.93945 -1.95508,1.93945c-1.1,0 -1.94141,-0.84775 -1.94141,-1.96875c0,-1.1 0.82708,-1.90625 1.95508,-1.90625z"></path></g></g></svg>