<svg xmlns="http://www.w3.org/2000/svg"  viewBox="0 0 256 256" width="128px" height="128px" fill="#72c1e8"><path fill="#72c1e8" d="M251.333,42.886v197.25c0,2.761-2.239,5-5,5H9.667c-2.761,0-5-2.239-5-5V42.886H251.333z"/><path fill="#afafaf" d="M251.333,15.865v27.021H4.667V15.865c0-2.761,2.239-5,5-5h236.667 C249.095,10.865,251.333,13.103,251.333,15.865z"/><circle cx="178.576" cy="26.875" r="6.132" fill="#fc5d3d"/><circle cx="202.222" cy="26.875" r="6.132" fill="#f0c020"/><circle cx="225.868" cy="26.875" r="6.132" fill="#13bf6d"/><path fill="#c5e5ff" d="M238.688,236.46H37.591c-1.381,0-2.5-1.119-2.5-2.5s1.119-2.5,2.5-2.5h198.598V54.058 c0-1.381,1.119-2.5,2.5-2.5s2.5,1.119,2.5,2.5V233.96C241.188,235.341,240.069,236.46,238.688,236.46z M27.591,236.46H17.312 c-1.381,0-2.5-1.119-2.5-2.5s1.119-2.5,2.5-2.5h10.279c1.381,0,2.5,1.119,2.5,2.5S28.972,236.46,27.591,236.46z"/><path fill="#fff" d="M128,63.5c-36.107,0-66.341,24.877-74.613,58.312h149.227C194.338,88.364,164.094,63.5,128,63.5z"/><path fill="#fff" d="M53.387,163.021c8.276,33.449,38.521,58.312,74.613,58.312c36.103,0,66.34-24.873,74.613-58.312H53.387z"/><path d="M169.939,26.88c0,4.75,3.88,8.63,8.63,8.63c4.761,0,8.641-3.88,8.641-8.63c0-4.76-3.88-8.64-8.641-8.64 C173.819,18.24,169.939,22.12,169.939,26.88z M182.21,26.88c-0.01,1.99-1.641,3.62-3.641,3.63c-1.989-0.01-3.619-1.64-3.63-3.63 c0.011-2,1.641-3.63,3.63-3.64C180.569,23.25,182.2,24.88,182.21,26.88z"/><path d="M202.22,18.24c-4.76,0-8.63,3.869-8.63,8.63c0,4.76,3.87,8.64,8.63,8.64s8.63-3.88,8.63-8.64 C210.85,22.109,206.979,18.24,202.22,18.24z M202.22,30.51c-2-0.01-3.63-1.64-3.63-3.64s1.63-3.62,3.63-3.63 c2,0.01,3.63,1.63,3.63,3.63S204.22,30.5,202.22,30.51z"/><path d="M225.87,35.51c4.76,0,8.63-3.88,8.63-8.64c0-4.75-3.87-8.63-8.63-8.63c-4.761,0-8.63,3.88-8.641,8.63 C217.24,31.63,221.109,35.51,225.87,35.51z M225.87,23.24c2,0.01,3.63,1.64,3.63,3.63c0,2-1.63,3.63-3.63,3.64 c-2-0.01-3.63-1.64-3.641-3.64C222.24,24.88,223.87,23.25,225.87,23.24z"/><path d="M17.624,24.375c-1.381,0-2.5,1.119-2.5,2.5s1.119,2.5,2.5,2.5h135.421c1.381,0,2.5-1.119,2.5-2.5s-1.119-2.5-2.5-2.5 H17.624z"/><circle cx="4.67" cy="186.46" r="2.5"/><circle cx="251.33" cy="86.189" r="2.5"/><path d="M253.83,96.189c0-1.38-1.12-2.5-2.5-2.5c-1.37,0-2.5,1.12-2.5,2.5v143.95c0,1.37-1.12,2.49-2.5,2.5H9.67 c-1.38-0.01-2.5-1.13-2.5-2.5v-43.68c0-1.38-1.12-2.5-2.5-2.5s-2.5,1.12-2.5,2.5v43.68c0,4.13,3.36,7.49,7.5,7.49h236.66 c4.14,0,7.5-3.36,7.5-7.49V96.189z"/><path d="M253.83,15.859c0-4.13-3.36-7.489-7.5-7.5H9.67c-4.14,0.011-7.5,3.37-7.5,7.5V176.46c0,1.38,1.12,2.5,2.5,2.5 s2.5-1.12,2.5-2.5V45.38h194.16c1.38,0,2.5-1.12,2.5-2.49c0-1.38-1.12-2.5-2.5-2.5H7.17v-24.53c0-1.369,1.12-2.489,2.5-2.5h236.66 c1.38,0.011,2.5,1.131,2.5,2.5v24.53h-27.5c-1.38,0-2.5,1.12-2.5,2.5c0,1.37,1.12,2.49,2.5,2.49h27.5v30.81 c0,1.38,1.12,2.5,2.5,2.5s2.5-1.12,2.5-2.5V15.859z"/><path d="M211.33,45.38c1.38,0,2.5-1.12,2.5-2.49c0-1.38-1.12-2.5-2.5-2.5s-2.5,1.12-2.5,2.5 C208.83,44.26,209.95,45.38,211.33,45.38z"/><path d="M128,61c-35.992,0-68.214,24.539-77.04,60.212c-0.389,1.574,0.803,3.101,2.427,3.101h149.227 c1.625,0,2.816-1.527,2.427-3.101C196.214,85.534,163.978,61,128,61z M108.262,68.693c-5.146,4.218-9.826,10.086-13.765,17.391 H77.204C86.038,77.831,96.721,71.879,108.262,68.693z M56.654,119.313c3.062-10.389,8.433-20.071,15.657-28.229h19.688 c-3.789,8.33-6.577,17.979-8.189,28.229H56.654z M125.5,119.313H88.871c1.703-10.39,4.675-20.06,8.68-28.229H125.5V119.313z M125.5,86.084h-25.269c6.942-11.764,15.914-18.847,25.269-19.924V86.084z M178.796,86.084h-17.292 c-3.94-7.306-8.62-13.174-13.767-17.392C159.278,71.879,169.963,77.831,178.796,86.084z M130.5,66.16 c9.355,1.077,18.326,8.16,25.269,19.924H130.5V66.16z M130.5,119.313V91.084h27.949c4.004,8.167,6.977,17.837,8.68,28.229H130.5z M172.19,119.313c-1.612-10.251-4.4-19.901-8.189-28.229h19.689c7.224,8.157,12.594,17.839,15.657,28.229H172.19z"/><path d="M50.96,163.622c8.825,35.671,41.049,60.212,77.04,60.212c35.99,0,68.215-24.54,77.04-60.212 c0.389-1.571-0.799-3.101-2.427-3.101H53.387C51.765,160.521,50.57,162.046,50.96,163.622z M147.737,216.142 c5.147-4.218,9.827-10.086,13.766-17.392h17.292C169.963,207.003,159.279,212.955,147.737,216.142z M199.347,165.521 c-3.062,10.389-8.433,20.07-15.657,28.229h-19.689c3.789-8.33,6.577-17.979,8.189-28.229H199.347z M130.5,165.521h36.629 c-1.703,10.39-4.676,20.06-8.68,28.229H130.5V165.521z M130.5,198.75h25.27c-6.943,11.764-15.915,18.847-25.27,19.924V198.75z M77.204,198.75h17.292c3.939,7.305,8.619,13.173,13.766,17.391C96.722,212.955,86.038,207.003,77.204,198.75z M125.5,218.674 c-9.355-1.077-18.326-8.16-25.269-19.924H125.5V218.674z M125.5,165.521v28.229H97.552c-4.005-8.168-6.978-17.839-8.68-28.229 H125.5z M83.81,165.521c1.612,10.25,4.4,19.899,8.19,28.229H72.311c-7.224-8.159-12.595-17.841-15.657-28.229H83.81z"/><path d="M134.979,131.645c-1.381,0-2.5,1.119-2.5,2.5c0,5.791,0,10.421,0,16.545c0,1.381,1.119,2.5,2.5,2.5s2.5-1.119,2.5-2.5 v-3.704h4.459c3.882,0,7.04-3.158,7.04-7.04v-1.262c0-3.882-3.158-7.039-7.04-7.039H134.979z M143.978,138.684v1.262 c0,1.125-0.915,2.04-2.04,2.04h-4.459v-5.341h4.459C143.062,136.645,143.978,137.56,143.978,138.684z"/><path d="M100.028,153.189c1.381,0,2.5-1.119,2.5-2.5v-14.045h3.249c1.381,0,2.5-1.119,2.5-2.5s-1.119-2.5-2.5-2.5H94.279 c-1.381,0-2.5,1.119-2.5,2.5s1.119,2.5,2.5,2.5h3.25v14.045C97.528,152.07,98.647,153.189,100.028,153.189z"/><path d="M120.378,153.189c1.381,0,2.5-1.119,2.5-2.5v-14.045h3.25c1.381,0,2.5-1.119,2.5-2.5s-1.119-2.5-2.5-2.5h-11.499 c-1.381,0-2.5,1.119-2.5,2.5s1.119,2.5,2.5,2.5h3.25v14.045C117.878,152.07,118.997,153.189,120.378,153.189z"/><path d="M85.428,153.189c1.381,0,2.5-1.119,2.5-2.5v-16.545c0-1.381-1.119-2.5-2.5-2.5s-2.5,1.119-2.5,2.5v6.144H77.54v-6.144 c0-1.381-1.119-2.5-2.5-2.5s-2.5,1.119-2.5,2.5v16.545c0,1.381,1.119,2.5,2.5,2.5s2.5-1.119,2.5-2.5v-5.401h5.388v5.401 C82.928,152.07,84.047,153.189,85.428,153.189z"/><path d="M157.806,137.641c0-1.381-1.119-2.5-2.5-2.5s-2.5,1.119-2.5,2.5v0.69c0,1.381,1.119,2.5,2.5,2.5s2.5-1.119,2.5-2.5V137.641 z"/><path d="M155.306,144.002c-1.381,0-2.5,1.119-2.5,2.5v0.69c0,1.381,1.119,2.5,2.5,2.5s2.5-1.119,2.5-2.5v-0.69 C157.806,145.121,156.687,144.002,155.306,144.002z"/><path d="M167.356,133.462l-4.692,16.545c-0.377,1.329,0.395,2.711,1.723,3.088c1.345,0.379,2.714-0.408,3.088-1.723l4.692-16.545 c0.377-1.329-0.395-2.711-1.723-3.088C169.112,131.362,167.733,132.135,167.356,133.462z"/><path d="M178.555,133.462l-4.693,16.545c-0.377,1.329,0.395,2.711,1.723,3.088c1.345,0.379,2.714-0.408,3.088-1.723l4.693-16.545 c0.377-1.329-0.395-2.711-1.723-3.088C180.311,131.362,178.932,132.135,178.555,133.462z"/></svg>