<svg xmlns="http://www.w3.org/2000/svg" xmlns:xlink="http://www.w3.org/1999/xlink" viewBox="0,0,256,256" width="100px" height="100px" fill-rule="nonzero" fill="#df1111"><g fill="#df1111" fill-rule="nonzero" stroke="none" stroke-width="1" stroke-linecap="butt" stroke-linejoin="miter" stroke-miterlimit="10" stroke-dasharray="" stroke-dashoffset="0" font-family="none" font-weight="none" font-size="none" text-anchor="none" style="mix-blend-mode: normal"><g transform="scale(5.12,5.12)"><path d="M7,4c-1.65,0 -3,1.35 -3,3v3h42v-3c0,-1.65 -1.35,-3 -3,-3zM4,12v33c0,0.55 0.45,1 1,1h40c0.55,0 1,-0.45 1,-1v-33zM17.75977,21c0.78,0 1.91023,0.42914 2.24023,0.61914l-0.34961,1.61133c-0.34,-0.21 -1.26969,-0.59961 -1.92969,-0.59961c-1.11,0 -1.80078,0.70969 -1.80078,1.42969c0,0.91 0.65016,1.32961 1.91016,2.09961c1.55,0.98 2.16992,2.11891 2.16992,3.37891c0,2.11 -1.5693,3.46094 -3.7793,3.46094c-0.91,0 -1.8407,-0.24023 -2.2207,-0.49023l0.33008,-1.60937c0.45,0.26 1.26062,0.46875 1.89063,0.46875c1.21,0 1.85938,-0.65867 1.85938,-1.63867c0,-0.95 -0.59961,-1.49039 -1.59961,-2.15039c-1.37,-0.84 -2.48047,-2.01102 -2.48047,-3.29102c0,-1.84 1.45977,-3.28906 3.75977,-3.28906zM24.75977,21c0.78,0 1.91023,0.42914 2.24023,0.61914l-0.34961,1.61133c-0.34,-0.21 -1.26969,-0.59961 -1.92969,-0.59961c-1.11,0 -1.80078,0.70969 -1.80078,1.42969c0,0.91 0.65016,1.32961 1.91016,2.09961c1.55,0.98 2.16992,2.11891 2.16992,3.37891c0,2.11 -1.5693,3.46094 -3.7793,3.46094c-0.91,0 -1.8407,-0.24023 -2.2207,-0.49023l0.33008,-1.60937c0.45,0.26 1.26063,0.48047 1.89063,0.48047c1.21,0 1.85938,-0.67039 1.85938,-1.65039c0,-0.95 -0.59961,-1.49039 -1.59961,-2.15039c-1.37,-0.84 -2.48047,-2.01102 -2.48047,-3.29102c0,-1.84 1.45977,-3.28906 3.75977,-3.28906zM29,21h2v5h3v-5h2v12h-2v-5h-3v5h-2z"></path></g></g></svg>