<svg xmlns="http://www.w3.org/2000/svg"  viewBox="0 0 40 40" width="80px" height="80px"><path fill="#b0c1d4" d="M15.559 35.5L16.447 27.5 23.553 27.5 24.441 35.5z"/><path fill="#66798f" d="M23.105,28l0.778,7h-7.766l0.778-7H23.105 M24,27h-8l-1,9h10L24,27L24,27z"/><path fill="#c2e8ff" d="M3,30.5c-0.827,0-1.5-0.673-1.5-1.5V6c0-0.827,0.673-1.5,1.5-1.5h34c0.827,0,1.5,0.673,1.5,1.5v23 c0,0.827-0.673,1.5-1.5,1.5H3z"/><path fill="#66798f" d="M37,5c0.551,0,1,0.449,1,1v23c0,0.551-0.449,1-1,1H3c-0.551,0-1-0.449-1-1V6c0-0.551,0.449-1,1-1 H37 M37,4H3C1.895,4,1,4.895,1,6v23c0,1.105,0.895,2,2,2h34c1.105,0,2-0.895,2-2V6C39,4.895,38.105,4,37,4L37,4z"/><path fill="#66798f" d="M2 26H38V30H2z"/><path fill="#36404d" d="M24.89,13.751c-0.056,0.035-1.382,0.77-1.382,2.402c0,1.692,1.455,2.404,1.701,2.515 C25.163,18.863,23.911,22,22.402,22c-0.812,0-1.104-0.513-2.041-0.513c-1.008,0-1.292,0.513-2.062,0.513 C17.039,22,15,19.3,15,16.34c0-2.264,1.356-3.834,3.126-3.834c0.82,0,1.548,0.563,2.049,0.563c0.48,0,1.375-0.563,2.389-0.563 C22.999,12.507,24.166,12.638,24.89,13.751z M20.031,11.989c-0.146-0.728,0.257-1.459,0.632-1.924 c0.48-0.563,1.235-0.945,1.889-0.945c0.042,0.728-0.221,1.444-0.701,1.966C21.433,11.649,20.703,12.073,20.031,11.989z"/><path fill="#66798f" d="M12 35H28V37H12z"/><path fill="#36404d" d="M20 27A1 1 0 1 0 20 29A1 1 0 1 0 20 27Z"/></svg>