<svg xmlns="http://www.w3.org/2000/svg" xmlns:xlink="http://www.w3.org/1999/xlink" viewBox="0,0,256,256" width="100px" height="100px" fill-rule="nonzero" fill="#20c997"><g fill="#20c997" fill-rule="nonzero" stroke="none" stroke-width="1" stroke-linecap="butt" stroke-linejoin="miter" stroke-miterlimit="10" stroke-dasharray="" stroke-dashoffset="0" font-family="none" font-weight="none" font-size="none" text-anchor="none" style="mix-blend-mode: normal"><g transform="scale(5.12,5.12)"><path d="M19,3v4h-7c-2.75781,0 -5,2.24219 -5,5v8h-5v10h12v-10h-5v-8c0,-1.65234 1.34766,-3 3,-3h7v4h12v-10zM33,7v2h5c1.65234,0 3,1.34766 3,3v8h-5v10h12v-10h-5v-8c0,-2.75781 -2.24219,-5 -5,-5zM7,32v6c0,2.75781 2.24219,5 5,5h7v4h12v-10h-12v4h-7c-1.65234,0 -3,-1.34766 -3,-3v-6zM41,32v6c0,1.65234 -1.34766,3 -3,3h-5v2h5c2.75781,0 5,-2.24219 5,-5v-6z"></path></g></g></svg>