<svg xmlns="http://www.w3.org/2000/svg"  viewBox="0 0 60 60" width="120px" height="120px"><path fill="#d94c57" d="M39,27.09,50.91,53.561a1.006,1.006,0,0,1-.98,1.41l-4.69-.23a1.043,1.043,0,0,0-.84.36l-3.01,3.54a1.042,1.042,0,0,1-1.73-.24L28.24,33Z"/><path fill="#ec5e69" d="M32.442,31.511,20.34,58.4a1.042,1.042,0,0,1-1.73.24L15.6,55.1a1.043,1.043,0,0,0-.84-.36l-4.69.23a1.006,1.006,0,0,1-.98-1.41l11.6-25.93Z"/><path fill="#cfd2da" d="M46.312,20.273a.986.986,0,0,0,.625-.819c.043-.48.063-.967.063-1.454s-.02-.973-.063-1.453a.989.989,0,0,0-.625-.82l-2.739-1.1a13.9,13.9,0,0,0-1.595-3.842l1.164-2.716A.989.989,0,0,0,43,7.052c-.309-.37-.639-.728-.983-1.073s-.7-.674-1.073-.983a.989.989,0,0,0-1.021-.138L37.211,6.022a13.9,13.9,0,0,0-3.842-1.6l-1.1-2.739a.986.986,0,0,0-.819-.625C30.974,1.02,30.487,1,30,1s-.974.02-1.454.063a.986.986,0,0,0-.819.625l-1.1,2.739a13.9,13.9,0,0,0-3.842,1.6L20.073,4.858A.989.989,0,0,0,19.052,5c-.37.309-.729.639-1.073.983s-.674.7-.983,1.073a.989.989,0,0,0-.138,1.021l1.164,2.716a13.9,13.9,0,0,0-1.595,3.842l-2.739,1.1a.989.989,0,0,0-.625.82C13.02,17.027,13,17.513,13,18s.02.974.063,1.454a.986.986,0,0,0,.625.819l2.739,1.1a13.9,13.9,0,0,0,1.595,3.842l-1.164,2.717A.989.989,0,0,0,17,28.949c.309.37.639.728.983,1.072s.7.675,1.073.983a.987.987,0,0,0,1.021.138l2.716-1.164a13.907,13.907,0,0,0,3.842,1.6l1.1,2.739a.987.987,0,0,0,.819.624c.48.044.967.064,1.454.064s.974-.02,1.454-.064a.987.987,0,0,0,.819-.624l1.1-2.739a13.907,13.907,0,0,0,3.842-1.6l2.716,1.164A.987.987,0,0,0,40.948,31c.37-.308.729-.638,1.073-.983s.674-.7.983-1.072a.989.989,0,0,0,.138-1.021l-1.164-2.717a13.9,13.9,0,0,0,1.595-3.842Z"/><circle cx="30" cy="18" r="10" fill="#55cba9"/><path fill="#373737" d="M10.119,55.97l4.719-.222,3.014,3.544A2.025,2.025,0,0,0,19.394,60a2.07,2.07,0,0,0,.292-.021,2.02,2.02,0,0,0,1.565-1.166L30,39.456,38.75,58.815a2.018,2.018,0,0,0,1.564,1.164,2.07,2.07,0,0,0,.292.021,2.026,2.026,0,0,0,1.545-.712l3.04-3.548,4.7.23a2.016,2.016,0,0,0,1.77-.894,1.972,1.972,0,0,0,.161-1.928L41.987,31.407c.249-.221.5-.436.741-.678.374-.374.725-.757,1.044-1.14a1.98,1.98,0,0,0,.289-2.055L43.1,25.279a14.922,14.922,0,0,0,1.315-3.168l2.274-.909h0a1.979,1.979,0,0,0,1.248-1.657c.045-.49.067-1.009.067-1.545s-.022-1.055-.067-1.543A1.984,1.984,0,0,0,46.684,14.8l-2.274-.909A14.936,14.936,0,0,0,43.1,10.722l.966-2.256a1.977,1.977,0,0,0-.29-2.054c-.317-.382-.668-.765-1.042-1.139s-.756-.725-1.14-1.045a1.976,1.976,0,0,0-2.055-.289l-2.256.966A14.914,14.914,0,0,0,34.111,3.59L33.2,1.315A1.976,1.976,0,0,0,31.543.067a18.07,18.07,0,0,0-3.086,0A1.978,1.978,0,0,0,26.8,1.316L25.889,3.59a14.914,14.914,0,0,0-3.167,1.315L20.468,3.94a1.979,1.979,0,0,0-2.057.288c-.384.32-.767.672-1.139,1.044s-.726.758-1.044,1.14a1.98,1.98,0,0,0-.289,2.055l.966,2.255a14.936,14.936,0,0,0-1.315,3.167l-2.276.91a1.982,1.982,0,0,0-1.247,1.657C12.022,16.945,12,17.465,12,18s.022,1.055.067,1.543A1.979,1.979,0,0,0,13.316,21.2l2.274.909a14.922,14.922,0,0,0,1.315,3.168l-.966,2.255a1.978,1.978,0,0,0,.29,2.055c.318.383.669.766,1.042,1.139.226.226.46.425.691.633L8.18,53.146a1.975,1.975,0,0,0,.16,1.931A2.025,2.025,0,0,0,10.119,55.97ZM45.27,53.741a2.1,2.1,0,0,0-1.631.712l-3.068,3.536L31.1,37.029l.5-1.108a1.978,1.978,0,0,0,1.6-1.236l.909-2.275A14.828,14.828,0,0,0,37.278,31.1l2.255.967a2.039,2.039,0,0,0,.621.148l9.825,21.762ZM18.879,24.694A12.9,12.9,0,0,1,17.4,21.128a1,1,0,0,0-.6-.688L14.06,19.362c-.041-.449-.06-.9-.06-1.362s.019-.913.059-1.344l2.739-1.1a1,1,0,0,0,.6-.687,12.918,12.918,0,0,1,1.482-3.567,1,1,0,0,0,.062-.911l-1.177-2.7q.435-.521.924-1.006c.329-.331.666-.641.991-.909L22.4,6.941a1,1,0,0,0,.911-.063A12.908,12.908,0,0,1,26.872,5.4a1,1,0,0,0,.688-.6L28.637,2.06a15.027,15.027,0,0,1,2.708,0L32.44,4.8a1,1,0,0,0,.688.6,12.908,12.908,0,0,1,3.565,1.481,1,1,0,0,0,.911.063l2.7-1.177c.338.281.675.591,1.005.923s.633.658.91.992L41.059,10.4a1,1,0,0,0,.062.911A12.918,12.918,0,0,1,42.6,14.873a1,1,0,0,0,.6.687l2.738,1.078c.041.449.06.906.06,1.362s-.019.913-.052,1.34l-.008,0L43.2,20.44a1,1,0,0,0-.6.688,12.9,12.9,0,0,1-1.482,3.566,1,1,0,0,0-.062.911l1.177,2.7q-.435.521-.924,1.007c-.322.323-.658.632-.991.909L37.6,29.059a1,1,0,0,0-.911.064,12.9,12.9,0,0,1-3.565,1.48,1,1,0,0,0-.688.6l-1.076,2.739a15.415,15.415,0,0,1-2.709,0l-1.1-2.74a1,1,0,0,0-.688-.6,12.9,12.9,0,0,1-3.565-1.48,1,1,0,0,0-.911-.064l-2.7,1.178c-.346-.29-.682-.6-1-.923s-.633-.659-.91-.992l1.164-2.717A1,1,0,0,0,18.879,24.694Zm.894,7.515a1.974,1.974,0,0,0,.693-.147l2.256-.967a14.828,14.828,0,0,0,3.167,1.315l.91,2.277a1.981,1.981,0,0,0,1.659,1.247c.3.026.61.029.918.04l-10,22.019-3-3.532a2.081,2.081,0,0,0-1.657-.719L10,53.97Z"/><path fill="#373737" d="M30,29A11,11,0,0,0,30,7a1,1,0,0,0,0,2,8.992,8.992,0,1,1-3.927.9A1,1,0,1,0,25.2,8.1,11,11,0,0,0,30,29Z"/><path fill="#373737" d="M25.293,19.293a1,1,0,0,0,0,1.414l2,2A1,1,0,0,0,28,23l.071,0a1,1,0,0,0,.729-.4l6-8a1,1,0,1,0-1.6-1.2l-5.308,7.078-1.185-1.185A1,1,0,0,0,25.293,19.293Z"/><path fill="#373737" d="M15.111,49.912a1,1,0,0,0,1.323-.5l5.838-13a1,1,0,1,0-1.824-.82l-5.839,13A1,1,0,0,0,15.111,49.912Z"/><path fill="#373737" d="M39.434,35.59a1,1,0,0,0-1.825.82l5.839,13a1,1,0,1,0,1.824-.82Z"/></svg>